<?xml version="1.0" standalone="no"?>
<!DOCTYPE svg PUBLIC "-//W3C//DTD SVG 20010904//EN"
 "http://www.w3.org/TR/2001/REC-SVG-20010904/DTD/svg10.dtd">
<svg version="1.0" xmlns="http://www.w3.org/2000/svg"
 width="369.000000pt" height="369.000000pt" viewBox="0 0 369.000000 369.000000"
 preserveAspectRatio="xMidYMid meet">
<metadata>
Created by potrace 1.11, written by Peter Selinger 2001-2013
</metadata>
<g transform="translate(0.000000,369.000000) scale(0.100000,-0.100000)"
fill="#000000" stroke="none">
<path d="M1635 3678 c-625 -70 -1183 -470 -1456 -1043 -301 -634 -213 -1397
224 -1940 355 -440 887 -695 1448 -695 702 0 1356 416 1660 1055 270 568 231
1233 -104 1770 -142 228 -368 451 -602 595 -339 208 -770 304 -1170 258z m772
-938 c383 -191 547 -277 559 -295 21 -31 21 -88 0 -120 -22 -34 -1085 -567
-1134 -568 -46 -1 -1114 531 -1138 568 -21 31 -21 88 0 120 11 17 177 105 549
291 292 147 543 270 557 274 14 5 34 6 45 4 11 -3 264 -126 562 -274z m-1084
-1033 l507 -252 498 249 c273 137 510 252 526 257 33 10 81 -7 109 -39 25 -28
26 -85 1 -119 -25 -36 -1089 -573 -1134 -573 -37 0 -1096 528 -1126 561 -29
33 -35 66 -20 103 22 52 65 79 111 69 11 -2 248 -117 528 -256z m-3 -522 l510
-255 510 255 c281 140 522 255 536 255 34 0 81 -25 95 -51 16 -31 14 -85 -5
-114 -22 -34 -1085 -567 -1134 -568 -46 -1 -1114 531 -1137 567 -18 27 -22 68
-11 104 10 29 62 62 98 62 16 0 246 -109 538 -255z"/>
<path d="M1422 2587 l-402 -202 405 -203 405 -202 405 202 405 203 -402 202
c-222 111 -405 202 -408 202 -3 0 -186 -91 -408 -202z"/>
</g>
</svg>
